<?xml version="1.0" encoding="UTF-8" standalone="no"?>
<svg width="539px" height="657px" viewBox="0 0 539 657" version="1.1" xmlns="http://www.w3.org/2000/svg" xmlns:xlink="http://www.w3.org/1999/xlink" xmlns:sketch="http://www.bohemiancoding.com/sketch/ns">
    <title>sweater-yes-white</title>
    <description>Created with Sketch (http://www.bohemiancoding.com/sketch)</description>
    <defs></defs>
    <g id="Page-1" stroke="none" stroke-width="1" fill="none" fill-rule="evenodd" sketch:type="MSPage">
        <path d="M341.323426,175.575054 C344.616147,178.910296 348.004147,182.504838 351,186 C361.21875,197.921875 397.9375,189.976563 415,198 C432.0625,206.023437 460.882812,231.078125 474,262 C487.117186,292.921875 539,429 539,429 L539,618 L456,617 L456,444 L416,374 L414,657 L127,657 L125,371 L85,443 L83,616 L0,615 L1,428 C1,428 45.5195312,296.999997 56,274 C66.4804675,251.000003 101.222656,217.179688 111,204 C120.777344,190.820312 178.097656,192.164063 190,181 C191.679395,179.424775 193.154882,177.717967 194.465843,175.981602 C182.677512,155.736899 176.378907,135.115826 176.378906,114.15889 C176.378906,89.099553 183.703947,62.5378018 197.303619,41.7944729 C214.23056,15.9761217 239.8189,0.371086587 270.999998,0.371093719 C302.628677,0.371100798 327.214156,15.7006782 342.085079,41.8239014 C353.434963,61.7618423 358.662077,87.0568587 358.662074,114.158896 C358.662072,135.4597 352.624699,155.531383 341.323426,175.575054 Z M293.660689,152.123437 C286.508506,164.128735 270.999985,188.234375 270.999985,188.234375 C232.03523,155.291854 229.378908,139.628031 229.378906,114.158888 C229.378906,99.0656181 233.915176,82.6163893 241.627031,70.8536397 C249.269134,59.1972808 258.822623,53.3710909 270.999986,53.3710937 C282.920801,53.3710964 290.287254,57.9642391 296.025239,68.0439546 C302.243835,78.967941 305.662076,95.5094745 305.662074,114.15889 C305.662073,126.354031 301.763889,138.521808 293.660689,152.123437 Z" id="Path-1" fill="#000000" sketch:type="MSShapeGroup"></path>
    </g>
</svg>